<svg xmlns="http://www.w3.org/2000/svg" fill="none" viewBox="0 0 500 500">
  <rect width="468" height="388" x="16" y="96" fill="tomato" stroke="#1B263B" stroke-width="32" rx="164"/>
  <path fill="#2DDE98" stroke="#1B263B" stroke-width="20" d="m263.705 96.159 21.521-60.496c4.73-13.296-6.984-26.616-20.775-23.624l-18.587 4.033a18.001 18.001 0 0 0-13.578 12.958l-16.288 61.155-66.296-7.272c-21.015-2.305-28.11 27.233-8.341 34.725l.162.061-23.956 6.808c-20.846 5.925-15.376 36.852 6.238 35.267l83.628-6.134 10.294 19.842c4.586 8.839 15.477 12.276 24.305 7.669l52.625-27.462 92.501 18.755c20.887 4.235 30.504-24.929 11.195-33.95l-48.875-22.832 17.368-19.63c12.274-13.87-1.882-35.004-19.38-28.933l-83.761 29.06Z"/>
  <rect width="24" height="70" x="58" y="288" fill="#D12000" rx="10"/>
  <rect width="32" height="100" x="114" y="288" fill="#D12000" rx="10"/>
  <rect width="24" height="70" x="178" y="288" fill="#D12000" rx="10"/>
  <rect width="32" height="100" x="234" y="288" fill="#D12000" rx="10"/>
  <rect width="24" height="70" x="298" y="288" fill="#D12000" rx="10"/>
  <rect width="32" height="100" x="354" y="288" fill="#D12000" rx="10"/>
  <rect width="24" height="70" x="418" y="288" fill="#D12000" rx="10"/>
</svg>
