<svg xmlns="http://www.w3.org/2000/svg" fill="none" viewBox="0 0 500 500">
  <path fill="tomato" d="M0 205C0 105.589 80.589 25 180 25h140c99.411 0 180 80.589 180 180v90c0 99.411-80.589 180-180 180H180C80.589 475 0 394.411 0 295v-90Z"/>
  <path fill="#1B263B" fill-rule="evenodd" d="M250 290c22.091 0 40-17.909 40-40s-17.909-40-40-40-40 17.909-40 40 17.909 40 40 40Zm0-30c5.523 0 10-4.477 10-10s-4.477-10-10-10-10 4.477-10 10 4.477 10 10 10Z" clip-rule="evenodd"/>
  <path fill="#1B263B" d="M338.05 354.599c6.904 11.957 2.807 27.247-9.15 34.15-11.958 6.904-27.247 2.807-34.151-9.15l-52.785-91.426 43.302-25 52.784 91.426Z"/>
  <path fill="#1B263B" fill-rule="evenodd" d="M119.633 35.373C49.913 60.186 0 126.764 0 205v90c0 99.411 80.589 180 180 180h140c99.411 0 180-80.589 180-180v-90c0-99.411-80.589-180-180-180H180c-18.982 0-37.278 2.938-54.457 8.385a22.85 22.85 0 0 0-5.91 1.988ZM180 57h140c16.142 0 31.681 2.584 46.225 7.362l-22.293 7.128c-4.926 1.575-5.635 8.43-1.141 11.03l59.749 34.576c5.751 3.328 2.625 12.359-3.883 11.217l-81.763-14.341c-3.439-.604-6.632 1.978-6.865 5.551l-2.214 33.891c-.32 4.901-5.903 7.382-9.605 4.269l-42.578-35.811a5.787 5.787 0 0 0-4.381-1.332l-94.995 10.821c-6.015.685-9.001-7.272-4.092-10.905l38.777-28.69c3.971-2.938 2.917-9.275-1.778-10.695L133.842 64.34C148.367 59.576 163.882 57 180 57Zm-67.42 16.213c2.672 2.976 6.267 5.397 10.88 6.792l37.702 11.403-19.704 14.578c-9.828 7.272-11.487 19.099-8.197 27.866 3.308 8.816 12.546 16.816 25.032 15.393l89.763-10.224 38.568 32.437c15.604 13.124 37.923 1.952 39.153-16.871l1.342-20.547 68.428 12.002c13.505 2.369 23.437-6.468 26.658-15.773 3.2-9.243.929-22.053-10.649-28.753l-36.454-21.095.967-.309c4.667-1.492 8.267-4.033 10.907-7.126C435.058 97.43 468 147.367 468 205v5h-20c-6.627 0-12 5.373-12 12v56c0 6.627 5.373 12 12 12h20v5c0 81.738-66.262 148-148 148h-30v-19c0-6.627-5.373-12-12-12h-56c-6.627 0-12 5.373-12 12v19h-30c-81.738 0-148-66.262-148-148v-5h20c6.627 0 12-5.373 12-12v-56c0-6.627-5.373-12-12-12H32v-5c0-57.455 32.74-107.264 80.58-131.787Z" clip-rule="evenodd"/>
  <path fill="#01CD74" d="M368.841 51.158c6.742.006 8.183 9.751 1.746 11.81l-26.655 8.522c-4.926 1.575-5.635 8.43-1.141 11.03l59.749 34.576c5.751 3.328 2.625 12.359-3.883 11.217l-81.763-14.341c-3.439-.604-6.632 1.978-6.865 5.551l-2.214 33.891c-.32 4.901-5.903 7.382-9.605 4.269l-42.578-35.811a5.788 5.788 0 0 0-4.381-1.332l-94.995 10.821c-6.015.685-9.001-7.272-4.092-10.905l38.777-28.69c3.971-2.938 2.917-9.275-1.778-10.695l-60.492-18.295c-6.524-1.973-5.132-11.843 1.669-11.836l238.501.218Z"/>
</svg>
