<svg xmlns="http://www.w3.org/2000/svg" fill="none" viewBox="0 0 500 500">
  <g clip-path="url(#a)">
    <path fill="tomato" stroke="#1B263B" stroke-linejoin="round" stroke-width="22" d="M102.827 11.957h296.521c50.184 0 90.869 40.684 90.869 90.87v296.522c0 50.184-40.686 90.868-90.869 90.868H102.827c-50.187 0-90.87-40.684-90.87-90.868V102.827c0-50.187 40.683-90.87 90.87-90.87Z"/>
    <path fill="#fff" stroke="#1B263B" stroke-linejoin="round" stroke-width="22" d="M250 430c99.411 0 180-80.589 180-180S349.411 70 250 70 70 150.589 70 250s80.589 180 180 180Z"/>
    <rect width="40" height="32" x="430" y="231" fill="#1B263B" rx="8" transform="rotate(90 430 231)"/>
    <rect width="40" height="32" x="102" y="231" fill="#1B263B" rx="8" transform="rotate(90 102 231)"/>
    <rect width="40" height="32" x="270" y="430" fill="#1B263B" rx="8" transform="rotate(-180 270 430)"/>
    <rect width="40" height="32" x="270" y="102" fill="#1B263B" rx="8" transform="rotate(-180 270 102)"/>
    <rect width="16" height="24" x="410.885" y="333.34" fill="#1B263B" rx="5" transform="rotate(120 410.885 333.34)"/>
    <rect width="16" height="24" x="119.9" y="165.34" fill="#1B263B" rx="5" transform="rotate(120 119.9 165.34)"/>
    <rect width="16" height="24" x="346.66" y="400.885" fill="#1B263B" rx="5" transform="rotate(150 346.66 400.885)"/>
    <rect width="16" height="24" x="178.66" y="109.9" fill="#1B263B" rx="5" transform="rotate(150 178.66 109.9)"/>
    <rect width="16" height="24" x="166.66" y="410.885" fill="#1B263B" rx="5" transform="rotate(-150 166.66 410.885)"/>
    <rect width="16" height="24" x="334.66" y="119.9" fill="#1B263B" rx="5" transform="rotate(-150 334.66 119.9)"/>
    <rect width="16" height="24" x="99.115" y="346.66" fill="#1B263B" rx="5" transform="rotate(-120 99.115 346.66)"/>
    <rect width="16" height="24" x="390.1" y="178.66" fill="#1B263B" rx="5" transform="rotate(-120 390.1 178.66)"/>
    <circle cx="250" cy="250" r="30" fill="#1B263B"/>
    <circle cx="250" cy="250" r="10" fill="#fff"/>
    <path fill="#1B263B" d="M320.785 337.406c4.418 7.653 1.796 17.439-5.857 21.857-7.652 4.418-17.438 1.796-21.856-5.857l-47-81.406 27.713-16 47 81.406Z"/>
  </g>
  <defs>
    <clipPath id="a">
      <path fill="#fff" d="M0 0h500v500H0z"/>
    </clipPath>
  </defs>
</svg>
