<svg xmlns="http://www.w3.org/2000/svg" fill="none" viewBox="0 0 470 470">
  <g clip-path="url(#a)">
    <path fill="#185277" d="M81.478 48.793h265.874c44.998 0 81.477 35.769 81.477 79.892v260.698c0 44.123-36.479 79.892-81.477 79.892H81.478C36.48 469.275 0 433.506 0 389.383V128.685c0-44.123 36.48-79.892 81.478-79.892Z" opacity=".5"/>
    <path fill="tomato" stroke="#1B263B" stroke-linejoin="round" stroke-width="22" d="M105.403 11.479h270.282c45.744 0 82.828 36.769 82.828 82.124v267.981c0 45.354-37.085 82.122-82.828 82.122H105.403c-45.745 0-82.829-36.768-82.829-82.122V93.603c0-45.356 37.084-82.124 82.829-82.124Z"/>
    <path fill="#fff" stroke="#1B263B" stroke-linejoin="round" stroke-width="22" d="M239.609 395.5c89.124 0 161.374-71.634 161.374-160s-72.25-160-161.374-160-161.373 71.634-161.373 160 72.249 160 161.373 160Z"/>
    <path stroke="#1B263B" stroke-linejoin="round" stroke-width="22" d="m232.045 131.97-1.394 105.655 100.502.625"/>
  </g>
  <defs>
    <clipPath id="a">
      <path fill="#fff" d="M0 0h470v470H0z"/>
    </clipPath>
  </defs>
</svg>
